<?xml version="1.0" encoding="UTF-8" standalone="no"?>
<!-- Created with Inkscape (http://www.inkscape.org/) -->

<svg
   xmlns:dc="http://purl.org/dc/elements/1.1/"
   xmlns:cc="http://creativecommons.org/ns#"
   xmlns:rdf="http://www.w3.org/1999/02/22-rdf-syntax-ns#"
   xmlns:svg="http://www.w3.org/2000/svg"
   xmlns="http://www.w3.org/2000/svg"
   xmlns:xlink="http://www.w3.org/1999/xlink"
   xmlns:sodipodi="http://sodipodi.sourceforge.net/DTD/sodipodi-0.dtd"
   xmlns:inkscape="http://www.inkscape.org/namespaces/inkscape"
   width="126.87905mm"
   height="126.87905mm"
   viewBox="0 0 449.57144 449.57144"
   id="svg2"
   version="1.1"
   inkscape:version="0.91 r13725"
   sodipodi:docname="custom-logo.svg">
  <defs
     id="defs4">
    <linearGradient
       inkscape:collect="always"
       id="linearGradient3569">
      <stop
         style="stop-color:#483737;stop-opacity:1;"
         offset="0"
         id="stop3571" />
      <stop
         style="stop-color:#483737;stop-opacity:1"
         offset="1"
         id="stop3573" />
    </linearGradient>
    <linearGradient
       inkscape:collect="always"
       xlink:href="#linearGradient3569"
       id="linearGradient3575"
       x1="306.07623"
       y1="632.13873"
       x2="551.54327"
       y2="338.18436"
       gradientUnits="userSpaceOnUse" />
  </defs>
  <sodipodi:namedview
     id="base"
     pagecolor="#ffffff"
     bordercolor="#666666"
     borderopacity="1.0"
     inkscape:pageopacity="0.0"
     inkscape:pageshadow="2"
     inkscape:zoom="0.98994949"
     inkscape:cx="239.36307"
     inkscape:cy="263.52105"
     inkscape:document-units="px"
     inkscape:current-layer="layer1"
     showgrid="false"
     inkscape:snap-global="true"
     inkscape:window-width="1360"
     inkscape:window-height="704"
     inkscape:window-x="0"
     inkscape:window-y="27"
     inkscape:window-maximized="1"
     fit-margin-top="0"
     fit-margin-left="0"
     fit-margin-right="0"
     fit-margin-bottom="0" />
  <metadata
     id="metadata7">
    <rdf:RDF>
      <cc:Work
         rdf:about="">
        <dc:format>image/svg+xml</dc:format>
        <dc:type
           rdf:resource="http://purl.org/dc/dcmitype/StillImage" />
        <dc:title></dc:title>
      </cc:Work>
    </rdf:RDF>
  </metadata>
  <g
     inkscape:label="Layer 1"
     inkscape:groupmode="layer"
     id="layer1"
     transform="translate(-170.92857,-311.86223)">
    <circle
       style="fill:url(#linearGradient3575);fill-opacity:1;fill-rule:evenodd;stroke:#000000;stroke-width:1px;stroke-linecap:butt;stroke-linejoin:miter;stroke-opacity:1"
       id="path3336"
       cx="395.71429"
       cy="536.64795"
       r="224.28572" />
    <path
       inkscape:connector-curvature="0"
       id="path4408"
       style="font-style:normal;font-weight:normal;font-size:375px;line-height:135.00000238%;font-family:sans-serif;letter-spacing:0px;word-spacing:0px;fill:#7fd8be;fill-opacity:1;stroke:none;stroke-width:1px;stroke-linecap:butt;stroke-linejoin:miter;stroke-opacity:1"
       d="m 458.80611,608.18097 0,145.13014 -33.87451,7.07107 0,-326.51762 33.87451,0 0,31.12793 c 7.08008,-12.20703 15.99121,-21.24023 26.7334,-27.09961 10.86426,-5.98145 23.80371,-8.97217 38.81836,-8.97217 24.90234,0 45.10498,9.8877 60.60791,29.66309 15.625,19.77539 23.4375,45.77637 23.4375,78.00293 0,32.22656 -7.8125,58.22754 -23.4375,78.00293 -15.50293,19.77539 -35.70557,29.66309 -60.60791,29.66309 -15.01465,0 -27.9541,-2.92969 -38.81836,-8.78907 -10.74219,-5.98144 -19.65332,-15.07568 -26.7334,-27.28271 z m 114.62402,-71.59424 c 0,-24.78027 -5.12695,-44.18945 -15.38085,-58.22754 -10.13184,-14.16015 -24.10889,-21.24023 -41.93116,-21.24023 -17.82227,0 -31.86035,7.08008 -42.11425,21.24023 -10.13184,14.03809 -15.19776,33.44727 -15.19776,58.22754 0,24.78027 5.06592,44.25049 15.19776,58.41064 10.2539,14.03809 24.29198,21.05713 42.11425,21.05713 17.82227,0 31.79932,-7.01904 41.93116,-21.05713 10.2539,-14.16015 15.38085,-33.63037 15.38085,-58.41064 z"
       sodipodi:nodetypes="cccccccscscsccscscscscs" />
    <g
       style="font-style:normal;font-weight:normal;font-size:40px;line-height:125%;font-family:sans-serif;letter-spacing:0px;word-spacing:0px;fill:#fcab64;fill-opacity:1;stroke:none;stroke-width:1px;stroke-linecap:butt;stroke-linejoin:miter;stroke-opacity:1"
       id="text4411">
      <path
         d="m 208.63412,433.70749 35.70557,0 64.08691,172.11914 113.58439,-293.33744 30.6548,4.0406 -121.351,322.25583 -45.77637,0 z"
         style="font-size:375px;fill:#fcab64;fill-opacity:1"
         id="path4423"
         inkscape:connector-curvature="0"
         sodipodi:nodetypes="cccccccc" />
    </g>
    <text
       xml:space="preserve"
       style="font-style:normal;font-weight:normal;font-size:40px;line-height:125%;font-family:sans-serif;letter-spacing:0px;word-spacing:0px;fill:#000000;fill-opacity:1;stroke:none;stroke-width:1px;stroke-linecap:butt;stroke-linejoin:miter;stroke-opacity:1"
       x="283.85287"
       y="397.78336"
       id="text4415"
       sodipodi:linespacing="125%"><tspan
         sodipodi:role="line"
         id="tspan4417"
         x="283.85287"
         y="397.78336"></tspan></text>
  </g>
</svg>
